<svg id="visual" viewBox="0 0 960 540" width="960" height="540" xmlns="http://www.w3.org/2000/svg" xmlns:xlink="http://www.w3.org/1999/xlink" version="1.1"><rect x="0" y="0" width="960" height="540" fill="#ffffff"></rect><path d="M0 418L32 416C64 414 128 410 192 383.3C256 356.7 320 307.3 384 287.3C448 267.3 512 276.7 576 292.8C640 309 704 332 768 349.3C832 366.7 896 378.3 928 384.2L960 390L960 541L928 541C896 541 832 541 768 541C704 541 640 541 576 541C512 541 448 541 384 541C320 541 256 541 192 541C128 541 64 541 32 541L0 541Z" fill="#b6d7f8"></path><path d="M0 355L32 346C64 337 128 319 192 317.2C256 315.3 320 329.7 384 344.3C448 359 512 374 576 365.7C640 357.3 704 325.7 768 321.8C832 318 896 342 928 354L960 366L960 541L928 541C896 541 832 541 768 541C704 541 640 541 576 541C512 541 448 541 384 541C320 541 256 541 192 541C128 541 64 541 32 541L0 541Z" fill="#a7cdf3"></path><path d="M0 406L32 406.5C64 407 128 408 192 402.8C256 397.7 320 386.3 384 387.8C448 389.3 512 403.7 576 411.3C640 419 704 420 768 413.2C832 406.3 896 391.7 928 384.3L960 377L960 541L928 541C896 541 832 541 768 541C704 541 640 541 576 541C512 541 448 541 384 541C320 541 256 541 192 541C128 541 64 541 32 541L0 541Z" fill="#98c3ed"></path><path d="M0 501L32 495.3C64 489.7 128 478.3 192 468.5C256 458.7 320 450.3 384 448.7C448 447 512 452 576 453.5C640 455 704 453 768 451.8C832 450.7 896 450.3 928 450.2L960 450L960 541L928 541C896 541 832 541 768 541C704 541 640 541 576 541C512 541 448 541 384 541C320 541 256 541 192 541C128 541 64 541 32 541L0 541Z" fill="#89b9e8"></path></svg>